<svg width="20" height="21" viewBox="0 0 20 21" fill="currentColor" xmlns="http://www.w3.org/2000/svg">
<path d="M11 15.0001H5.00001C4.73479 15.0001 4.48044 15.1054 4.2929 15.293C4.10537 15.4805 4.00001 15.7349 4.00001 16.0001C4.00001 16.2653 4.10537 16.5196 4.2929 16.7072C4.48044 16.8947 4.73479 17.0001 5.00001 17.0001H11C11.2652 17.0001 11.5196 16.8947 11.7071 16.7072C11.8947 16.5196 12 16.2653 12 16.0001C12 15.7349 11.8947 15.4805 11.7071 15.293C11.5196 15.1054 11.2652 15.0001 11 15.0001ZM7.00001 9.00007H9.00001C9.26522 9.00007 9.51958 8.89471 9.70711 8.70717C9.89465 8.51964 10 8.26528 10 8.00007C10 7.73485 9.89465 7.4805 9.70711 7.29296C9.51958 7.10543 9.26522 7.00007 9.00001 7.00007H7.00001C6.73479 7.00007 6.48044 7.10543 6.2929 7.29296C6.10537 7.4805 6.00001 7.73485 6.00001 8.00007C6.00001 8.26528 6.10537 8.51964 6.2929 8.70717C6.48044 8.89471 6.73479 9.00007 7.00001 9.00007ZM19 11.0001H16V2.00007C16.0007 1.82386 15.9548 1.65059 15.867 1.49781C15.7792 1.34504 15.6526 1.21817 15.5 1.13007C15.348 1.0423 15.1755 0.996094 15 0.996094C14.8245 0.996094 14.652 1.0423 14.5 1.13007L11.5 2.85007L8.50001 1.13007C8.34799 1.0423 8.17554 0.996094 8.00001 0.996094C7.82447 0.996094 7.65203 1.0423 7.50001 1.13007L4.50001 2.85007L1.50001 1.13007C1.34799 1.0423 1.17554 0.996094 1.00001 0.996094C0.824471 0.996094 0.652027 1.0423 0.500008 1.13007C0.347404 1.21817 0.220789 1.34504 0.132986 1.49781C0.0451828 1.65059 -0.000691685 1.82386 7.88288e-06 2.00007V18.0001C7.88288e-06 18.7957 0.316078 19.5588 0.878688 20.1214C1.4413 20.684 2.20436 21.0001 3.00001 21.0001H17C17.7957 21.0001 18.5587 20.684 19.1213 20.1214C19.6839 19.5588 20 18.7957 20 18.0001V12.0001C20 11.7349 19.8947 11.4805 19.7071 11.293C19.5196 11.1054 19.2652 11.0001 19 11.0001ZM3.00001 19.0001C2.73479 19.0001 2.48044 18.8947 2.2929 18.7072C2.10536 18.5196 2.00001 18.2653 2.00001 18.0001V3.73007L4.00001 4.87007C4.15435 4.95068 4.32589 4.99278 4.50001 4.99278C4.67413 4.99278 4.84567 4.95068 5.00001 4.87007L8.00001 3.15007L11 4.87007C11.1543 4.95068 11.3259 4.99278 11.5 4.99278C11.6741 4.99278 11.8457 4.95068 12 4.87007L14 3.73007V18.0001C14.0027 18.3412 14.0636 18.6794 14.18 19.0001H3.00001ZM18 18.0001C18 18.2653 17.8947 18.5196 17.7071 18.7072C17.5196 18.8947 17.2652 19.0001 17 19.0001C16.7348 19.0001 16.4804 18.8947 16.2929 18.7072C16.1054 18.5196 16 18.2653 16 18.0001V13.0001H18V18.0001ZM11 11.0001H5.00001C4.73479 11.0001 4.48044 11.1054 4.2929 11.293C4.10537 11.4805 4.00001 11.7349 4.00001 12.0001C4.00001 12.2653 4.10537 12.5196 4.2929 12.7072C4.48044 12.8947 4.73479 13.0001 5.00001 13.0001H11C11.2652 13.0001 11.5196 12.8947 11.7071 12.7072C11.8947 12.5196 12 12.2653 12 12.0001C12 11.7349 11.8947 11.4805 11.7071 11.293C11.5196 11.1054 11.2652 11.0001 11 11.0001Z"/>
</svg>
